# xmcd CD database file
#
# Track frame offsets:
#	150
#	16667
#	33302
#	46535
#	62573
#	79145
#	93283
#	108849
#	121165
#	137875
#	152095
#	166496
#	179051
#
# Disc length: 2605 seconds
#
# Revision: 0
# Processed by: cddbd v1.5.2PL0 Copyright (c) Steve Scherf et al.
# Submitted via: CD2WAV32(JP) R3.22
#
DISCID=990a2b0d
DTITLE=Helemaal hollands - Tikkie Liefde
DYEAR=2008
DGENRE=Pop
TTITLE0=Jij Bent Het Helemaal
TTITLE1=Een Ster Vernoemd Naar Jou
TTITLE2=De Arme Muzikant
TTITLE3=Tikkie Liefde
TTITLE4=Verliefd
TTITLE5=Laat Me Leven
TTITLE6=Zondagskind
TTITLE7=Als Je Een Seconde Naar Me Lacht
TTITLE8=26000 Dagen
TTITLE9=Isabella
TTITLE10=Als Ik Maar Bij Jou Ben
TTITLE11=Wat Een Vrouw
TTITLE12=Winter
EXTD=
EXTT0=
EXTT1=
EXTT2=
EXTT3=
EXTT4=
EXTT5=
EXTT6=
EXTT7=
EXTT8=
EXTT9=
EXTT10=
EXTT11=
EXTT12=
PLAYORDER=
